<mxfile host="app.diagrams.net" agent="Mozilla/5.0 (Windows NT 10.0; Win64; x64; rv:135.0) Gecko/20100101 Firefox/135.0" version="26.0.11">
  <diagram id="C5RBs43oDa-KdzZeNtuy" name="Page-1">
    <mxGraphModel dx="1383" dy="746" grid="1" gridSize="10" guides="1" tooltips="1" connect="1" arrows="1" fold="1" page="1" pageScale="1" pageWidth="827" pageHeight="1169" math="0" shadow="0">
      <root>
        <mxCell id="WIyWlLk6GJQsqaUBKTNV-0" />
        <mxCell id="WIyWlLk6GJQsqaUBKTNV-1" parent="WIyWlLk6GJQsqaUBKTNV-0" />
        <mxCell id="KUlqm_Rh8vLC3z45I6Um-0" value="&lt;div&gt;Play a game?&lt;/div&gt;" style="rhombus;whiteSpace=wrap;html=1;" vertex="1" parent="WIyWlLk6GJQsqaUBKTNV-1">
          <mxGeometry x="270" y="80" width="130" height="80" as="geometry" />
        </mxCell>
        <mxCell id="KUlqm_Rh8vLC3z45I6Um-1" value="Display Art" style="rounded=0;whiteSpace=wrap;html=1;" vertex="1" parent="WIyWlLk6GJQsqaUBKTNV-1">
          <mxGeometry x="275" y="200" width="120" height="60" as="geometry" />
        </mxCell>
        <mxCell id="KUlqm_Rh8vLC3z45I6Um-2" value="&lt;div&gt;Display two random&lt;/div&gt;&lt;div&gt;cards for player w/ total score&lt;/div&gt;" style="rounded=0;whiteSpace=wrap;html=1;" vertex="1" parent="WIyWlLk6GJQsqaUBKTNV-1">
          <mxGeometry x="275" y="310" width="120" height="60" as="geometry" />
        </mxCell>
        <mxCell id="KUlqm_Rh8vLC3z45I6Um-3" value="Select two random cards for computer and display first card" style="rounded=0;whiteSpace=wrap;html=1;" vertex="1" parent="WIyWlLk6GJQsqaUBKTNV-1">
          <mxGeometry x="275" y="410" width="120" height="60" as="geometry" />
        </mxCell>
        <mxCell id="KUlqm_Rh8vLC3z45I6Um-4" value="Does player want another card?" style="rhombus;whiteSpace=wrap;html=1;" vertex="1" parent="WIyWlLk6GJQsqaUBKTNV-1">
          <mxGeometry x="267.5" y="505" width="135" height="105" as="geometry" />
        </mxCell>
        <mxCell id="KUlqm_Rh8vLC3z45I6Um-5" value="" style="endArrow=classic;html=1;rounded=0;exitX=0.5;exitY=1;exitDx=0;exitDy=0;" edge="1" parent="WIyWlLk6GJQsqaUBKTNV-1" source="KUlqm_Rh8vLC3z45I6Um-0" target="KUlqm_Rh8vLC3z45I6Um-1">
          <mxGeometry width="50" height="50" relative="1" as="geometry">
            <mxPoint x="390" y="440" as="sourcePoint" />
            <mxPoint x="440" y="390" as="targetPoint" />
          </mxGeometry>
        </mxCell>
        <mxCell id="KUlqm_Rh8vLC3z45I6Um-8" value="YES" style="edgeLabel;html=1;align=center;verticalAlign=middle;resizable=0;points=[];" vertex="1" connectable="0" parent="KUlqm_Rh8vLC3z45I6Um-5">
          <mxGeometry x="0.2" relative="1" as="geometry">
            <mxPoint x="15" y="-14" as="offset" />
          </mxGeometry>
        </mxCell>
        <mxCell id="KUlqm_Rh8vLC3z45I6Um-6" value="" style="endArrow=classic;html=1;rounded=0;exitX=0.5;exitY=1;exitDx=0;exitDy=0;" edge="1" parent="WIyWlLk6GJQsqaUBKTNV-1" source="KUlqm_Rh8vLC3z45I6Um-1" target="KUlqm_Rh8vLC3z45I6Um-2">
          <mxGeometry width="50" height="50" relative="1" as="geometry">
            <mxPoint x="390" y="440" as="sourcePoint" />
            <mxPoint x="440" y="390" as="targetPoint" />
          </mxGeometry>
        </mxCell>
        <mxCell id="KUlqm_Rh8vLC3z45I6Um-7" value="" style="endArrow=classic;html=1;rounded=0;exitX=0.5;exitY=1;exitDx=0;exitDy=0;" edge="1" parent="WIyWlLk6GJQsqaUBKTNV-1" source="KUlqm_Rh8vLC3z45I6Um-2">
          <mxGeometry width="50" height="50" relative="1" as="geometry">
            <mxPoint x="390" y="440" as="sourcePoint" />
            <mxPoint x="335" y="410" as="targetPoint" />
          </mxGeometry>
        </mxCell>
        <mxCell id="KUlqm_Rh8vLC3z45I6Um-10" value="" style="endArrow=classic;html=1;rounded=0;exitX=0.5;exitY=1;exitDx=0;exitDy=0;entryX=0.5;entryY=0;entryDx=0;entryDy=0;" edge="1" parent="WIyWlLk6GJQsqaUBKTNV-1" source="KUlqm_Rh8vLC3z45I6Um-3" target="KUlqm_Rh8vLC3z45I6Um-4">
          <mxGeometry width="50" height="50" relative="1" as="geometry">
            <mxPoint x="290" y="380" as="sourcePoint" />
            <mxPoint x="340" y="330" as="targetPoint" />
          </mxGeometry>
        </mxCell>
      </root>
    </mxGraphModel>
  </diagram>
</mxfile>
